# Blender v2.73 (sub 0) OBJ File: 'engine_future1.blend'
# www.blender.org
o engine
v -1.074308 -0.980740 -0.681228
v -1.074308 -0.896223 -0.567396
v -1.074308 -0.896223 -0.339730
v -1.074308 -0.980740 -0.225898
v -1.074308 -1.065257 -0.339730
v -1.074308 -1.065257 -0.567395
v -1.665799 -0.980740 -0.339730
v -1.567217 -0.896223 -0.282814
v -1.370053 -0.896223 -0.168982
v -1.271472 -0.980740 -0.112065
v -1.370053 -1.065257 -0.168982
v -1.567217 -1.065257 -0.282814
v -1.665799 -0.980740 0.343265
v -1.567217 -0.896223 0.286349
v -1.370053 -0.896223 0.172516
v -1.271472 -0.980740 0.115600
v -1.370053 -1.065257 0.172516
v -1.567217 -1.065257 0.286349
v -1.074308 -0.980740 0.684763
v -1.074308 -0.896223 0.570930
v -1.074308 -0.896223 0.343265
v -1.074308 -0.980740 0.229432
v -1.074308 -1.065257 0.343265
v -1.074308 -1.065257 0.570930
v -0.482817 -0.980740 0.343265
v -0.581398 -0.896223 0.286349
v -0.778562 -0.896223 0.172516
v -0.877144 -0.980740 0.115600
v -0.778562 -1.065257 0.172516
v -0.581398 -1.065257 0.286349
v -0.482817 -0.980740 -0.339730
v -0.581398 -0.896223 -0.282814
v -0.778562 -0.896223 -0.168982
v -0.877144 -0.980740 -0.112065
v -0.778562 -1.065257 -0.168982
v -0.581398 -1.065257 -0.282814
v 1.227657 -0.957487 -0.682995
v 1.227657 -0.872970 -0.569163
v 1.227657 -0.872970 -0.341498
v 1.227657 -0.957487 -0.227665
v 1.227657 -1.042005 -0.341498
v 1.227657 -1.042005 -0.569163
v 0.636166 -0.957487 -0.341498
v 0.734748 -0.872970 -0.284581
v 0.931911 -0.872970 -0.170749
v 1.030493 -0.957487 -0.113833
v 0.931911 -1.042005 -0.170749
v 0.734748 -1.042005 -0.284581
v 0.636166 -0.957487 0.341498
v 0.734748 -0.872970 0.284581
v 0.931911 -0.872970 0.170749
v 1.030493 -0.957487 0.113833
v 0.931911 -1.042005 0.170749
v 0.734748 -1.042005 0.284581
v 1.227657 -0.957487 0.682995
v 1.227657 -0.872970 0.569163
v 1.227657 -0.872970 0.341498
v 1.227657 -0.957487 0.227665
v 1.227657 -1.042005 0.341498
v 1.227657 -1.042005 0.569163
v 1.819148 -0.957487 0.341498
v 1.720567 -0.872970 0.284581
v 1.523403 -0.872970 0.170749
v 1.424821 -0.957487 0.113833
v 1.523403 -1.042005 0.170749
v 1.720567 -1.042005 0.284581
v 1.819148 -0.957487 -0.341498
v 1.720567 -0.872970 -0.284581
v 1.523403 -0.872970 -0.170749
v 1.424821 -0.957487 -0.113833
v 1.523403 -1.042005 -0.170749
v 1.720567 -1.042005 -0.284581
v 1.856893 1.232331 0.000377
v 1.856893 1.360512 0.000377
v 1.256893 1.232331 0.000377
v 1.256893 1.360512 0.000377
v 1.556893 1.232331 -0.519238
v 1.556893 1.360512 -0.519238
v 2.156893 1.232331 -0.519238
v 2.156893 1.360512 -0.519238
v 2.456893 1.232331 0.000377
v 2.456893 1.360512 0.000377
v 2.156893 1.232331 0.519992
v 2.156893 1.360512 0.519992
v 1.556893 1.232331 0.519992
v 1.556893 1.360512 0.519992
v -0.200646 1.235233 0.000377
v -0.342068 1.235233 0.141798
v -0.483489 1.235233 0.000377
v -0.342068 1.235233 -0.141044
v -0.200646 1.435233 0.000377
v -0.342068 1.435233 0.141798
v -0.483489 1.435233 0.000377
v -0.342068 1.435233 -0.141044
v 3.156708 0.815363 0.993005
v -2.578532 0.815363 0.993729
v -2.502317 0.905110 0.942146
v 3.156708 0.815363 0.793005
v 3.156708 1.015363 0.993005
v -2.159422 1.015363 1.057152
v -2.408250 1.015363 0.878309
v 3.156708 1.015363 0.793005
v 3.155747 0.847874 -0.807875
v -2.554760 0.847874 -0.978336
v -2.604363 0.791084 -0.999643
v 3.155747 0.791084 -0.999643
v 3.155747 1.039642 -0.864666
v -2.393278 1.039642 -0.862502
v -2.134788 0.982851 -1.056433
v 3.155747 0.982851 -1.056433
v -3.842068 -0.060940 0.000377
v 3.157933 -0.060941 0.000377
v -2.217592 1.238098 -0.749623
v 3.157933 1.238098 -0.749623
v -3.331618 -0.060940 -1.499623
v 3.157933 -0.060941 -1.499623
v -3.842068 -1.047293 -0.897148
v 3.157933 -1.047293 -0.897147
v -3.842068 -1.047293 0.900301
v 3.157932 -1.047293 0.900301
v -3.331618 -0.060940 1.500377
v 3.157933 -0.060940 1.500377
v -2.217592 1.238098 0.750377
v 3.157933 1.238097 0.750377
v -0.776628 1.238098 -0.749623
v -1.592028 -0.060940 -1.499623
v -1.965646 -1.047293 -0.897148
v -1.965646 -1.047293 0.900301
v -1.592028 -0.060940 1.500377
v -0.776628 1.238098 0.750377
v 0.446729 1.238098 -0.749623
v -0.115142 -0.060941 -1.499623
v -0.372593 -1.047293 -0.897148
v -0.372593 -1.047293 0.900301
v -0.115142 -0.060940 1.500377
v 0.446729 1.238098 0.750377
v 1.036425 1.238098 -0.749623
v 0.596763 -0.060941 -1.499623
v 0.395308 -1.047293 -0.897147
v 0.395308 -1.047293 0.900301
v 0.596763 -0.060940 1.500377
v 1.036425 1.238098 0.750377
v 2.206320 1.238098 -0.749623
v 2.009107 -0.060941 -1.499623
v 1.918744 -1.047293 -0.897147
v 1.918744 -1.047293 0.900301
v 2.009107 -0.060940 1.500377
v 2.206320 1.238097 0.750377
v -1.592028 -0.060940 -1.499623
v -0.115142 -0.060941 -1.499623
v 0.596763 -0.060941 -1.499623
v 2.009107 -0.060941 -1.499623
v 1.963926 -0.554117 1.200339
v 1.941335 -0.800705 1.050320
v 1.963926 -0.554117 -1.198385
v 2.009107 -0.060941 -1.499623
v 1.941335 -0.800705 -1.047766
v 0.496035 -0.554117 -1.198385
v 0.596763 -0.060941 -1.499623
v 0.445672 -0.800705 -1.047766
v 0.496035 -0.554117 1.200339
v 0.445672 -0.800705 1.050320
v -0.243867 -0.554117 1.200339
v -0.308230 -0.800705 1.050320
v -1.778837 -0.554116 1.200339
v -1.872241 -0.800705 1.050320
v -1.778837 -0.554117 -1.198385
v -1.592028 -0.060940 -1.499623
v -1.872241 -0.800705 -1.047766
v -0.243867 -0.554117 -1.198385
v -0.308230 -0.800705 -1.047766
v 0.240976 1.230834 0.100000
v 0.040976 1.230834 0.100000
v 0.040976 1.230834 -0.100000
v 0.240976 1.230834 -0.100000
v 0.240976 1.720948 0.100000
v 0.040976 1.720948 0.100000
v 0.040976 1.720948 -0.100000
v 0.240976 1.720948 -0.100000
vn -0.325400 0.759200 -0.563700
vn -0.000000 1.000000 -0.000000
vn 0.325400 0.759200 0.563700
vn 0.325400 -0.759200 0.563700
vn 0.000000 -1.000000 0.000000
vn -0.325400 -0.759200 -0.563700
vn -0.650900 0.759200 0.000000
vn 0.650900 0.759200 0.000000
vn 0.650900 -0.759200 0.000000
vn -0.650900 -0.759200 0.000000
vn -0.325400 0.759200 0.563700
vn 0.325400 0.759200 -0.563700
vn 0.325400 -0.759200 -0.563700
vn -0.325400 -0.759200 0.563700
vn -0.866000 0.000000 -0.500000
vn 0.000000 0.000000 -1.000000
vn 0.866000 0.000000 -0.500000
vn 0.866000 0.000000 0.500000
vn 0.000000 0.000000 1.000000
vn -0.866000 0.000000 0.500000
vn 0.707100 -0.000000 0.707100
vn -0.707100 -0.000000 0.707100
vn -0.707100 0.000000 -0.707100
vn 0.707100 0.000000 -0.707100
vn 0.000100 -0.302500 0.953100
vn -0.419300 0.695600 0.583400
vn -0.015300 0.000000 -0.999900
vn 1.000000 0.000000 0.000000
vn -0.000100 -0.498200 -0.867000
vn -0.025800 -0.500800 0.865200
vn -0.323100 0.566600 -0.758000
vn 0.000000 -0.284000 -0.958800
vn 0.000000 -0.351300 0.936300
vn -0.000100 0.959700 -0.281200
vn -0.670100 0.706300 -0.228000
vn 0.000000 0.500000 -0.866000
vn -0.908500 0.281300 -0.309100
vn 0.000000 -0.521300 -0.853400
vn -1.000000 0.000000 -0.000000
vn -0.908300 0.282000 0.309100
vn 0.000000 -0.519700 0.854300
vn -0.670100 0.706300 0.228000
vn 0.000000 0.500000 0.866000
vn -0.624500 0.781000 0.000000
vn -0.967600 0.252600 -0.000000
vn -0.995800 0.091200 -0.000000
vn 0.979800 -0.200100 0.000000
vn 0.935200 -0.354200 0.000000
vn 0.012100 -0.000000 0.999900
vn -0.419500 0.693100 0.586200
vn -0.030700 -0.481100 -0.876100
vn -0.015900 -0.999900 0.000000
vn 0.000400 0.284000 0.958800
vn -0.339300 0.679000 -0.651100
vn -0.008500 -0.958800 0.283900
vn 0.000000 0.958800 -0.284000
s off
f 1//1 7//1 8//1
f 8//2 9//2 3//2
f 3//3 9//3 10//3
f 4//4 10//4 11//4
f 11//5 12//5 6//5
f 1//6 6//6 12//6
f 13//7 14//7 8//7
f 14//2 15//2 9//2
f 15//8 16//8 10//8
f 16//9 17//9 11//9
f 17//5 18//5 12//5
f 18//10 13//10 7//10
f 19//11 20//11 14//11
f 20//2 21//2 15//2
f 21//12 22//12 16//12
f 22//13 23//13 17//13
f 23//5 24//5 18//5
f 24//14 19//14 13//14
f 25//3 26//3 20//3
f 26//2 27//2 21//2
f 21//1 27//1 28//1
f 22//6 28//6 29//6
f 29//5 30//5 24//5
f 24//4 30//4 25//4
f 31//8 32//8 26//8
f 32//2 33//2 27//2
f 27//7 33//7 34//7
f 28//10 34//10 35//10
f 35//5 36//5 30//5
f 36//9 31//9 25//9
f 31//12 1//12 2//12
f 2//2 3//2 33//2
f 3//11 4//11 34//11
f 4//14 5//14 35//14
f 5//5 6//5 36//5
f 36//13 6//13 1//13
f 43//1 44//1 38//1
f 44//2 45//2 39//2
f 45//3 46//3 40//3
f 46//4 47//4 41//4
f 47//5 48//5 42//5
f 42//6 48//6 43//6
f 49//7 50//7 44//7
f 50//2 51//2 45//2
f 45//8 51//8 52//8
f 52//9 53//9 47//9
f 53//5 54//5 48//5
f 54//10 49//10 43//10
f 49//11 55//11 56//11
f 56//2 57//2 51//2
f 51//12 57//12 58//12
f 58//13 59//13 53//13
f 59//5 60//5 54//5
f 54//14 60//14 55//14
f 61//3 62//3 56//3
f 56//2 62//2 63//2
f 63//1 64//1 58//1
f 64//6 65//6 59//6
f 65//5 66//5 60//5
f 60//4 66//4 61//4
f 67//8 68//8 62//8
f 68//2 69//2 63//2
f 69//7 70//7 64//7
f 64//10 70//10 71//10
f 71//5 72//5 66//5
f 72//9 67//9 61//9
f 37//12 38//12 68//12
f 38//2 39//2 69//2
f 39//11 40//11 70//11
f 70//14 40//14 41//14
f 71//5 41//5 42//5
f 42//13 37//13 67//13
f 73//5 75//5 77//5
f 74//2 78//2 76//2
f 76//15 78//15 77//15
f 73//5 77//5 79//5
f 74//2 80//2 78//2
f 78//16 80//16 79//16
f 73//5 79//5 81//5
f 74//2 82//2 80//2
f 80//17 82//17 81//17
f 73//5 81//5 83//5
f 74//2 84//2 82//2
f 82//18 84//18 83//18
f 73//5 83//5 85//5
f 74//2 86//2 84//2
f 84//19 86//19 85//19
f 73//5 85//5 75//5
f 74//2 76//2 86//2
f 85//20 86//20 76//20
f 91//21 92//21 88//21
f 92//22 93//22 89//22
f 93//23 94//23 90//23
f 91//24 87//24 90//24
f 88//5 89//5 90//5
f 94//2 93//2 92//2
f 100//25 96//25 95//25
f 100//26 101//26 97//26
f 101//27 102//27 98//27
f 102//28 99//28 95//28
f 95//29 96//29 97//29
f 102//2 101//2 100//2
f 108//30 104//30 103//30
f 109//31 105//31 104//31
f 109//32 110//32 106//32
f 110//28 107//28 103//28
f 104//33 105//33 106//33
f 109//34 108//34 107//34
f 111//35 113//35 115//35
f 112//28 116//28 114//28
f 143//36 114//36 116//36
f 111//37 115//37 117//37
f 112//28 118//28 116//28
f 116//38 118//38 155//38
f 111//39 117//39 119//39
f 112//28 120//28 118//28
f 118//5 120//5 146//5
f 111//40 119//40 121//40
f 112//28 122//28 120//28
f 154//41 120//41 153//41
f 111//42 121//42 123//42
f 112//28 124//28 122//28
f 122//43 124//43 148//43
f 111//44 123//44 113//44
f 112//28 114//28 124//28
f 124//2 114//2 143//2
f 130//2 125//2 113//2
f 129//43 130//43 123//43
f 121//41 166//41 165//41
f 117//5 127//5 128//5
f 115//38 167//38 169//38
f 113//36 125//36 126//36
f 130//2 136//2 131//2
f 135//43 136//43 130//43
f 164//41 135//41 129//41
f 164//45 171//45 133//45
f 125//36 131//36 132//36
f 142//2 137//2 131//2
f 141//43 142//43 136//43
f 163//41 162//41 161//41
f 139//5 140//5 134//5
f 170//38 158//38 160//38
f 131//36 137//36 138//36
f 148//2 143//2 137//2
f 147//43 148//43 142//43
f 154//41 147//41 141//41
f 157//38 160//38 138//38
f 137//36 143//36 144//36
f 160//5 157//5 154//5
f 154//46 157//46 145//46
f 139//47 160//47 162//47
f 127//48 169//48 166//48
f 164//5 166//5 169//5
f 171//38 169//38 168//38
f 177//19 173//19 172//19
f 177//39 178//39 174//39
f 179//16 175//16 174//16
f 176//28 172//28 175//28
f 173//5 174//5 175//5
f 178//2 177//2 176//2
f 2//1 1//1 8//1
f 2//2 8//2 3//2
f 4//3 3//3 10//3
f 5//4 4//4 11//4
f 5//5 11//5 6//5
f 7//6 1//6 12//6
f 7//7 13//7 8//7
f 8//2 14//2 9//2
f 9//8 15//8 10//8
f 10//9 16//9 11//9
f 11//5 17//5 12//5
f 12//10 18//10 7//10
f 13//11 19//11 14//11
f 14//2 20//2 15//2
f 15//12 21//12 16//12
f 16//13 22//13 17//13
f 17//5 23//5 18//5
f 18//14 24//14 13//14
f 19//3 25//3 20//3
f 20//2 26//2 21//2
f 22//1 21//1 28//1
f 23//6 22//6 29//6
f 23//5 29//5 24//5
f 19//4 24//4 25//4
f 25//8 31//8 26//8
f 26//2 32//2 27//2
f 28//7 27//7 34//7
f 29//10 28//10 35//10
f 29//5 35//5 30//5
f 30//9 36//9 25//9
f 32//12 31//12 2//12
f 32//2 2//2 33//2
f 33//11 3//11 34//11
f 34//14 4//14 35//14
f 35//5 5//5 36//5
f 31//13 36//13 1//13
f 37//1 43//1 38//1
f 38//2 44//2 39//2
f 39//3 45//3 40//3
f 40//4 46//4 41//4
f 41//5 47//5 42//5
f 37//6 42//6 43//6
f 43//7 49//7 44//7
f 44//2 50//2 45//2
f 46//8 45//8 52//8
f 46//9 52//9 47//9
f 47//5 53//5 48//5
f 48//10 54//10 43//10
f 50//11 49//11 56//11
f 50//2 56//2 51//2
f 52//12 51//12 58//12
f 52//13 58//13 53//13
f 53//5 59//5 54//5
f 49//14 54//14 55//14
f 55//3 61//3 56//3
f 57//2 56//2 63//2
f 57//1 63//1 58//1
f 58//6 64//6 59//6
f 59//5 65//5 60//5
f 55//4 60//4 61//4
f 61//8 67//8 62//8
f 62//2 68//2 63//2
f 63//7 69//7 64//7
f 65//10 64//10 71//10
f 65//5 71//5 66//5
f 66//9 72//9 61//9
f 67//12 37//12 68//12
f 68//2 38//2 69//2
f 69//11 39//11 70//11
f 71//14 70//14 41//14
f 72//5 71//5 42//5
f 72//13 42//13 67//13
f 75//15 76//15 77//15
f 77//16 78//16 79//16
f 79//17 80//17 81//17
f 81//18 82//18 83//18
f 83//19 84//19 85//19
f 75//20 85//20 76//20
f 87//21 91//21 88//21
f 88//22 92//22 89//22
f 89//23 93//23 90//23
f 94//24 91//24 90//24
f 87//5 88//5 90//5
f 91//2 94//2 92//2
f 99//49 100//49 95//49
f 96//50 100//50 97//50
f 97//51 101//51 98//51
f 98//28 102//28 95//28
f 98//52 95//52 97//52
f 99//2 102//2 100//2
f 107//53 108//53 103//53
f 108//54 109//54 104//54
f 105//32 109//32 106//32
f 106//28 110//28 103//28
f 103//55 104//55 106//55
f 110//56 109//56 107//56
f 144//36 143//36 116//36
f 118//38 157//38 155//38
f 155//38 144//38 116//38
f 157//38 118//38 145//38
f 145//5 118//5 146//5
f 120//41 154//41 146//41
f 122//41 147//41 153//41
f 153//41 120//41 122//41
f 147//43 122//43 148//43
f 148//2 124//2 143//2
f 123//2 130//2 113//2
f 121//43 129//43 123//43
f 128//41 121//41 119//41
f 121//41 165//41 129//41
f 121//41 128//41 166//41
f 119//5 117//5 128//5
f 127//38 117//38 115//38
f 115//38 169//38 127//38
f 115//38 126//38 167//38
f 115//36 113//36 126//36
f 125//2 130//2 131//2
f 129//43 135//43 130//43
f 166//41 164//41 129//41
f 134//45 164//45 133//45
f 126//36 125//36 132//36
f 136//2 142//2 131//2
f 135//43 141//43 136//43
f 140//41 164//41 134//41
f 161//41 135//41 163//41
f 135//41 161//41 141//41
f 164//41 140//41 162//41
f 162//41 163//41 164//41
f 133//5 139//5 134//5
f 158//38 170//38 132//38
f 139//38 133//38 171//38
f 171//38 170//38 160//38
f 160//38 139//38 171//38
f 158//38 132//38 138//38
f 132//36 131//36 138//36
f 142//2 148//2 137//2
f 141//43 147//43 142//43
f 162//41 154//41 141//41
f 144//38 157//38 138//38
f 138//36 137//36 144//36
f 162//5 160//5 154//5
f 146//46 154//46 145//46
f 140//47 139//47 162//47
f 128//48 127//48 166//48
f 171//5 164//5 169//5
f 150//38 171//38 168//38
f 176//19 177//19 172//19
f 173//39 177//39 174//39
f 178//16 179//16 174//16
f 179//28 176//28 175//28
f 172//5 173//5 175//5
f 179//2 178//2 176//2
l 168 149
l 132 150
l 159 151
l 156 152
l 144 156
l 138 159
l 126 168
