# Blender v2.73 (sub 0) OBJ File: 'weapon1.blend'
# www.blender.org
o weapon
v 0.000000 -1.183551 -0.643738
v 0.000000 -1.077752 -0.536448
v 0.000000 -1.077752 -0.321869
v 0.000000 -1.183551 -0.214579
v 0.000000 -1.289351 -0.321869
v 0.000000 -1.289351 -0.536448
v -0.557493 -1.183551 -0.321869
v -0.464578 -1.077752 -0.268224
v -0.278747 -1.077752 -0.160934
v -0.185831 -1.183551 -0.107290
v -0.278747 -1.289351 -0.160934
v -0.464578 -1.289351 -0.268224
v -0.557494 -1.183551 0.321869
v -0.464578 -1.077752 0.268224
v -0.278747 -1.077752 0.160934
v -0.185831 -1.183551 0.107290
v -0.278747 -1.289351 0.160934
v -0.464578 -1.289351 0.268224
v -0.000000 -1.183551 0.643738
v -0.000000 -1.077752 0.536448
v -0.000000 -1.077752 0.321869
v -0.000000 -1.183551 0.214579
v -0.000000 -1.289351 0.321869
v -0.000000 -1.289351 0.536448
v 0.557494 -1.183551 0.321869
v 0.464578 -1.077752 0.268224
v 0.278747 -1.077752 0.160934
v 0.185831 -1.183551 0.107290
v 0.278747 -1.289351 0.160934
v 0.464578 -1.289351 0.268224
v 0.557493 -1.183551 -0.321869
v 0.464578 -1.077752 -0.268224
v 0.278747 -1.077752 -0.160934
v 0.185831 -1.183551 -0.107290
v 0.278747 -1.289351 -0.160934
v 0.464578 -1.289351 -0.268224
v -2.000000 0.000000 -0.000000
v 2.000000 -0.000000 0.000000
v -2.000000 0.000000 -1.500000
v 2.000000 -0.000000 -1.500000
v -2.000000 -1.202973 -0.750000
v 2.000000 -1.202973 -0.750000
v -2.000000 -1.202973 0.750000
v 2.000000 -1.202973 0.750000
v -2.000000 0.000000 1.500000
v 2.000000 0.000000 1.500000
v 0.666667 -0.000000 -1.500000
v -0.666667 -0.000000 -1.500000
v 0.666667 -1.202973 -0.750000
v -0.666667 -1.202973 -0.750000
v 0.666667 -1.202973 0.750000
v -0.666667 -1.202973 0.750000
v 0.666667 0.000000 1.500000
v -0.666667 0.000000 1.500000
v 0.666667 -0.878214 -0.937500
v -0.666667 -0.553454 -1.125000
v -0.666667 -0.878214 -0.937500
v 0.666667 -0.553454 1.125000
v -0.666667 -0.553454 1.125000
v 0.666667 -0.878213 0.937500
v -0.666667 -0.878213 0.937500
v -0.000000 -0.039161 -0.000000
v 0.000000 0.160839 0.000000
v -1.500000 -0.039161 -0.000000
v -1.500000 0.160839 0.000000
v -0.750000 -0.039161 -1.299038
v -0.750000 0.160839 -1.299038
v 0.750000 -0.039161 -1.299038
v 0.750000 0.160839 -1.299038
v 1.500000 -0.039161 0.000000
v 1.500000 0.160839 0.000000
v 0.750000 -0.039161 1.299038
v 0.750000 0.160839 1.299038
v -0.750000 -0.039161 1.299038
v -0.750000 0.160839 1.299038
v 0.800000 0.109856 0.800000
v -0.800000 0.109856 0.800000
v -0.800000 0.109856 -0.800000
v 0.800000 0.109856 -0.800000
v 0.800000 0.982022 0.593866
v -0.800000 0.982022 0.593866
v -0.800000 0.468413 -0.800000
v 0.800000 0.468413 -0.800000
v 0.328395 0.358090 0.778994
v 0.086281 0.600204 0.778994
v 0.086281 0.600204 0.436593
v 0.328395 0.358090 0.436593
v 0.570509 0.600204 0.778994
v 0.328395 0.842318 0.778994
v 0.328395 0.842318 0.436593
v 0.570509 0.600204 0.436593
v -0.315991 0.357359 0.781267
v -0.560877 0.602245 0.781267
v -0.560877 0.602245 0.434947
v -0.315991 0.357359 0.434947
v -0.071105 0.602245 0.781267
v -0.315991 0.847131 0.781267
v -0.315991 0.847131 0.434947
v -0.071105 0.602245 0.434947
v -0.237029 0.506740 1.519682
v -0.418473 0.506740 1.519682
v -0.418473 0.506740 0.676321
v -0.237029 0.506740 0.676321
v -0.237029 0.688184 1.519682
v -0.418473 0.688184 1.519682
v -0.418473 0.688184 0.676321
v -0.237029 0.688184 0.676321
v 0.396352 0.524174 1.545022
v 0.216351 0.524174 1.545022
v 0.216351 0.524174 0.380352
v 0.396352 0.524174 0.380352
v 0.396352 0.704175 1.545022
v 0.216351 0.704175 1.545022
v 0.216351 0.704175 0.380352
v 0.396352 0.704175 0.380352
vn -0.375700 0.659900 -0.650700
vn 0.000000 1.000000 0.000000
vn 0.375700 0.659900 0.650700
vn 0.375700 -0.659900 0.650700
vn 0.000000 -1.000000 0.000000
vn -0.375700 -0.659900 -0.650700
vn -0.751400 0.659900 -0.000000
vn 0.751400 0.659900 0.000000
vn 0.751400 -0.659900 0.000000
vn -0.751400 -0.659900 0.000000
vn -0.375700 0.659900 0.650700
vn 0.375700 0.659900 -0.650700
vn 0.375700 -0.659900 -0.650700
vn -0.375700 -0.659900 0.650700
vn -1.000000 -0.000000 0.000000
vn 1.000000 0.000000 0.000000
vn -0.019100 -0.529000 0.848400
vn 0.000000 -0.560900 0.827900
vn 0.000000 -0.500000 -0.866000
vn -0.000000 -0.500000 0.866000
vn 0.000000 -0.539400 -0.842100
vn -0.866000 0.000000 -0.500000
vn 0.000000 0.000000 -1.000000
vn 0.866000 0.000000 -0.500000
vn 0.866000 -0.000000 0.500000
vn -0.000000 0.000000 1.000000
vn -0.866000 -0.000000 0.500000
vn 0.000000 0.230000 0.973200
vn 0.000000 0.938300 -0.345800
vn -0.707100 0.707100 0.000000
vn 0.707100 -0.707100 0.000000
vn -0.707100 -0.707100 0.000000
vn 0.707100 0.707100 0.000000
vn -0.009500 -0.529000 -0.848500
vn 0.019100 -0.529000 0.848400
vn 0.019100 -0.529000 -0.848400
vn 0.000000 -0.560900 -0.827900
s off
f 7//1 8//1 2//1
f 8//2 9//2 3//2
f 9//3 10//3 4//3
f 10//4 11//4 5//4
f 11//5 12//5 6//5
f 6//6 12//6 7//6
f 13//7 14//7 8//7
f 14//2 15//2 9//2
f 9//8 15//8 16//8
f 16//9 17//9 11//9
f 17//5 18//5 12//5
f 18//10 13//10 7//10
f 13//11 19//11 20//11
f 20//2 21//2 15//2
f 21//12 22//12 16//12
f 16//13 22//13 23//13
f 23//5 24//5 18//5
f 24//14 19//14 13//14
f 25//3 26//3 20//3
f 20//2 26//2 27//2
f 27//1 28//1 22//1
f 28//6 29//6 23//6
f 29//5 30//5 24//5
f 30//4 25//4 19//4
f 31//8 32//8 26//8
f 32//2 33//2 27//2
f 33//7 34//7 28//7
f 28//10 34//10 35//10
f 29//5 35//5 36//5
f 36//9 31//9 25//9
f 31//12 1//12 2//12
f 2//2 3//2 33//2
f 3//11 4//11 34//11
f 34//14 4//14 5//14
f 5//5 6//5 36//5
f 36//13 6//13 1//13
f 37//15 39//15 41//15
f 38//16 42//16 40//16
f 47//2 54//2 53//2
f 37//15 41//15 43//15
f 38//16 44//16 42//16
f 42//5 44//5 51//5
f 37//15 43//15 45//15
f 38//16 46//16 44//16
f 44//17 46//17 58//17
f 54//18 59//18 58//18
f 42//19 49//19 55//19
f 43//20 61//20 59//20
f 52//16 50//16 57//16
f 50//5 52//5 43//5
f 48//21 47//21 55//21
f 41//19 56//19 57//19
f 61//5 57//5 55//5
f 51//15 60//15 55//15
f 62//5 64//5 66//5
f 63//2 67//2 65//2
f 64//22 65//22 67//22
f 62//5 66//5 68//5
f 63//2 69//2 67//2
f 67//23 69//23 68//23
f 62//5 68//5 70//5
f 63//2 71//2 69//2
f 69//24 71//24 70//24
f 62//5 70//5 72//5
f 63//2 73//2 71//2
f 71//25 73//25 72//25
f 62//5 72//5 74//5
f 63//2 75//2 73//2
f 73//26 75//26 74//26
f 62//5 74//5 64//5
f 63//2 65//2 75//2
f 75//27 65//27 64//27
f 81//28 77//28 76//28
f 82//15 78//15 77//15
f 83//23 79//23 78//23
f 83//16 80//16 76//16
f 77//5 78//5 79//5
f 82//29 81//29 80//29
f 89//26 85//26 84//26
f 90//30 86//30 85//30
f 91//23 87//23 86//23
f 88//31 84//31 87//31
f 85//32 86//32 87//32
f 90//33 89//33 88//33
f 97//26 93//26 92//26
f 98//30 94//30 93//30
f 99//23 95//23 94//23
f 96//31 92//31 95//31
f 93//32 94//32 95//32
f 98//33 97//33 96//33
f 105//26 101//26 100//26
f 106//15 102//15 101//15
f 107//23 103//23 102//23
f 104//16 100//16 103//16
f 101//5 102//5 103//5
f 106//2 105//2 104//2
f 113//26 109//26 108//26
f 114//15 110//15 109//15
f 115//23 111//23 110//23
f 112//16 108//16 111//16
f 109//5 110//5 111//5
f 114//2 113//2 112//2
f 1//1 7//1 2//1
f 2//2 8//2 3//2
f 3//3 9//3 4//3
f 4//4 10//4 5//4
f 5//5 11//5 6//5
f 1//6 6//6 7//6
f 7//7 13//7 8//7
f 8//2 14//2 9//2
f 10//8 9//8 16//8
f 10//9 16//9 11//9
f 11//5 17//5 12//5
f 12//10 18//10 7//10
f 14//11 13//11 20//11
f 14//2 20//2 15//2
f 15//12 21//12 16//12
f 17//13 16//13 23//13
f 17//5 23//5 18//5
f 18//14 24//14 13//14
f 19//3 25//3 20//3
f 21//2 20//2 27//2
f 21//1 27//1 22//1
f 22//6 28//6 23//6
f 23//5 29//5 24//5
f 24//4 30//4 19//4
f 25//8 31//8 26//8
f 26//2 32//2 27//2
f 27//7 33//7 28//7
f 29//10 28//10 35//10
f 30//5 29//5 36//5
f 30//9 36//9 25//9
f 32//12 31//12 2//12
f 32//2 2//2 33//2
f 33//11 3//11 34//11
f 35//14 34//14 5//14
f 35//5 5//5 36//5
f 31//13 36//13 1//13
f 48//2 39//2 37//2
f 54//2 47//2 48//2
f 47//2 38//2 40//2
f 38//2 53//2 46//2
f 37//2 45//2 54//2
f 54//2 48//2 37//2
f 47//2 53//2 38//2
f 49//5 42//5 51//5
f 44//20 58//20 60//20
f 60//20 51//20 44//20
f 58//18 46//18 53//18
f 58//18 53//18 54//18
f 61//20 60//20 58//20
f 58//20 59//20 61//20
f 55//34 40//34 42//34
f 40//21 55//21 47//21
f 59//35 45//35 43//35
f 45//18 59//18 54//18
f 43//20 52//20 61//20
f 61//16 52//16 57//16
f 41//5 50//5 43//5
f 57//21 48//21 55//21
f 56//36 41//36 39//36
f 41//19 57//19 50//19
f 39//37 48//37 56//37
f 60//5 61//5 55//5
f 49//15 51//15 55//15
f 66//22 64//22 67//22
f 66//23 67//23 68//23
f 68//24 69//24 70//24
f 70//25 71//25 72//25
f 72//26 73//26 74//26
f 74//27 75//27 64//27
f 80//28 81//28 76//28
f 81//15 82//15 77//15
f 82//23 83//23 78//23
f 79//16 83//16 76//16
f 76//5 77//5 79//5
f 83//29 82//29 80//29
f 88//26 89//26 84//26
f 89//30 90//30 85//30
f 90//23 91//23 86//23
f 91//31 88//31 87//31
f 84//32 85//32 87//32
f 91//33 90//33 88//33
f 96//26 97//26 92//26
f 97//30 98//30 93//30
f 98//23 99//23 94//23
f 99//31 96//31 95//31
f 92//32 93//32 95//32
f 99//33 98//33 96//33
f 104//26 105//26 100//26
f 105//15 106//15 101//15
f 106//23 107//23 102//23
f 107//16 104//16 103//16
f 100//5 101//5 103//5
f 107//2 106//2 104//2
f 112//26 113//26 108//26
f 113//15 114//15 109//15
f 114//23 115//23 110//23
f 115//16 112//16 111//16
f 108//5 109//5 111//5
f 115//2 114//2 112//2
